<svg width="24" height="24" viewBox="0 0 99 83" fill="none" xmlns="http://www.w3.org/2000/svg">
<path d="M0.552799 0.115723L98.6525 0.335435L98.4418 82.7759L0.34668 82.5562L0.552799 0.115723Z" fill="#9D70F9"/>
<path d="M0.552339 0.115723L98.6521 0.303559L98.5958 19.0984L0.496094 18.9105L0.552339 0.115723Z" fill="black"/>
<circle cx="11.8498" cy="9.75703" r="3.36445" fill="white"/>
<circle cx="22.5783" cy="9.75703" r="3.36445" fill="white"/>
<circle cx="33.3078" cy="9.75703" r="3.36445" fill="white"/>
<path d="M67.1302 46.39C70.5862 48.3853 70.5862 53.3736 67.1302 55.369L39.5255 71.3066C36.0695 73.3019 31.7494 70.8078 31.7494 66.8171L31.7494 34.9419C31.7494 30.9512 36.0694 28.457 39.5254 30.4524L67.1302 46.39Z" fill="white"/>
<path d="M40.4473 59.6297L57.5545 51.1014L40.4473 42.5225V59.6297Z" fill="#FF5656"/>
</svg>
